<svg width="40" height="35" viewBox="0 0 40 35" fill="none" xmlns="http://www.w3.org/2000/svg">
<path fill-rule="evenodd" clip-rule="evenodd" d="M4 14C4 13.5359 4.21071 13.0908 4.58579 12.7626C4.96086 12.4344 5.46957 12.25 6 12.25H26.616C27.1464 12.25 27.6551 12.4344 28.0302 12.7626C28.4053 13.0908 28.616 13.5359 28.616 14C28.616 14.4641 28.4053 14.9092 28.0302 15.2374C27.6551 15.5656 27.1464 15.75 26.616 15.75H6C5.46957 15.75 4.96086 15.5656 4.58579 15.2374C4.21071 14.9092 4 14.4641 4 14ZM4 7C4 6.53587 4.21071 6.09075 4.58579 5.76256C4.96086 5.43437 5.46957 5.25 6 5.25H34C34.5304 5.25 35.0391 5.43437 35.4142 5.76256C35.7893 6.09075 36 6.53587 36 7C36 7.46413 35.7893 7.90925 35.4142 8.23744C35.0391 8.56563 34.5304 8.75 34 8.75H6C5.46957 8.75 4.96086 8.56563 4.58579 8.23744C4.21071 7.90925 4 7.46413 4 7ZM4 21C4 20.5359 4.21071 20.0908 4.58579 19.7626C4.96086 19.4344 5.46957 19.25 6 19.25H34C34.5304 19.25 35.0391 19.4344 35.4142 19.7626C35.7893 20.0908 36 20.5359 36 21C36 21.4641 35.7893 21.9092 35.4142 22.2374C35.0391 22.5656 34.5304 22.75 34 22.75H6C5.46957 22.75 4.96086 22.5656 4.58579 22.2374C4.21071 21.9092 4 21.4641 4 21ZM4 28C4 27.5359 4.21071 27.0908 4.58579 26.7626C4.96086 26.4344 5.46957 26.25 6 26.25H26.616C27.1464 26.25 27.6551 26.4344 28.0302 26.7626C28.4053 27.0908 28.616 27.5359 28.616 28C28.616 28.4641 28.4053 28.9093 28.0302 29.2374C27.6551 29.5656 27.1464 29.75 26.616 29.75H6C5.46957 29.75 4.96086 29.5656 4.58579 29.2374C4.21071 28.9093 4 28.4641 4 28Z" fill="white"/>
</svg>
