<svg width="45" height="35" viewBox="0 0 45 35" fill="none" xmlns="http://www.w3.org/2000/svg">
<path fill-rule="evenodd" clip-rule="evenodd" d="M0.0399009 12.4256C0.0372568 11.7756 0.330512 11.151 0.855153 10.6893C1.37979 10.2275 2.09285 9.96638 2.83744 9.96335L31.7773 9.84564C32.5219 9.84261 33.237 10.0979 33.7654 10.5554C34.2938 11.0129 34.5921 11.6351 34.5948 12.2851C34.5974 12.9351 34.3042 13.5597 33.7795 14.0214C33.2549 14.4832 32.5418 14.7443 31.7972 14.7473L2.85738 14.8651C2.11278 14.8681 1.39763 14.6128 0.869252 14.1553C0.340871 13.6978 0.0425449 13.0756 0.0399009 12.4256ZM2.3395e-05 2.62221C-0.00262065 1.9722 0.290634 1.34761 0.815275 0.885847C1.33992 0.424081 2.05297 0.162962 2.79757 0.159933L42.1027 5.09798e-05C42.8473 -0.00297784 43.5625 0.252332 44.0909 0.709814C44.6193 1.1673 44.9176 1.78948 44.9202 2.43949C44.9229 3.08949 44.6296 3.71408 44.105 4.17585C43.5803 4.63761 42.8673 4.89873 42.1227 4.90176L2.81751 5.06164C2.07291 5.06467 1.35775 4.80936 0.829374 4.35188C0.300994 3.8944 0.00266744 3.27222 2.3395e-05 2.62221ZM0.0797784 22.2291C0.0771343 21.579 0.370389 20.9545 0.89503 20.4927C1.41967 20.0309 2.13272 19.7698 2.87732 19.7668L42.1825 19.6069C42.9271 19.6039 43.6422 19.8592 44.1706 20.3167C44.699 20.7741 44.9973 21.3963 45 22.0463C45.0026 22.6963 44.7094 23.3209 44.1847 23.7827C43.6601 24.2445 42.947 24.5056 42.2024 24.5086L2.89726 24.6685C2.15266 24.6715 1.43751 24.4162 0.909129 23.9587C0.380749 23.5012 0.0824224 22.8791 0.0797784 22.2291ZM0.119656 32.0325C0.117012 31.3825 0.410267 30.7579 0.934908 30.2961C1.45955 29.8343 2.1726 29.5732 2.9172 29.5702L31.857 29.4525C32.6016 29.4494 33.3168 29.7048 33.8452 30.1622C34.3735 30.6197 34.6719 31.2419 34.6745 31.8919C34.6772 32.5419 34.3839 33.1665 33.8593 33.6283C33.3346 34.09 32.6216 34.3512 31.877 34.3542L2.93714 34.4719C2.19254 34.4749 1.47739 34.2196 0.949007 33.7621C0.420626 33.3047 0.1223 32.6825 0.119656 32.0325Z" fill="white"/>
</svg>
